<?xml version="1.0" standalone="no"?>
<!DOCTYPE svg PUBLIC "-//W3C//DTD SVG 20010904//EN"
 "http://www.w3.org/TR/2001/REC-SVG-20010904/DTD/svg10.dtd">
<svg version="1.0" xmlns="http://www.w3.org/2000/svg"
 width="442.000000pt" height="442.000000pt" viewBox="0 0 442.000000 442.000000"
 preserveAspectRatio="xMidYMid meet">
<metadata>
Created by potrace 1.11, written by Peter Selinger 2001-2013
</metadata>
<g transform="translate(0.000000,442.000000) scale(0.100000,-0.100000)"
fill="#000000" stroke="none">
<path d="M2139 4216 c-2 -2 -33 -6 -69 -9 -349 -31 -710 -227 -932 -509 -155
-196 -232 -367 -294 -653 -3 -16 -8 -102 -9 -190 -3 -129 0 -181 16 -265 35
-184 57 -241 187 -505 198 -398 331 -724 377 -924 3 -9 11 -45 20 -81 9 -36
18 -78 20 -95 2 -16 6 -46 9 -65 3 -19 7 -78 11 -130 8 -137 20 -202 51 -271
24 -53 27 -73 28 -174 1 -79 5 -118 14 -127 10 -10 142 -13 650 -13 560 0 639
2 652 15 12 12 15 40 15 130 -1 101 1 119 20 150 12 19 22 37 22 40 1 3 6 23
11 45 11 40 17 98 27 251 3 45 8 92 10 105 3 13 8 40 11 59 4 19 8 42 9 50 20
106 93 334 168 521 70 173 121 284 228 494 105 206 142 297 175 429 31 130 37
184 38 331 0 140 -10 233 -36 330 -5 22 -11 47 -13 55 -8 38 -50 144 -95 236
-166 340 -497 616 -857 715 -83 23 -97 26 -201 44 -36 6 -258 15 -263 11z
m247 -211 c21 -4 48 -8 60 -10 68 -9 193 -53 290 -100 355 -172 600 -505 658
-890 13 -87 14 -293 1 -365 -28 -162 -63 -253 -197 -515 -63 -123 -137 -280
-175 -370 -14 -33 -31 -73 -38 -90 -24 -54 -102 -269 -123 -340 -55 -185 -90
-358 -96 -475 -11 -188 -24 -258 -53 -276 -12 -7 -170 -10 -493 -9 -261 1
-481 3 -487 4 -31 3 -49 75 -59 246 -10 162 -47 349 -109 540 -34 105 -101
286 -131 353 -13 29 -24 55 -24 58 0 10 -98 216 -196 414 -57 113 -114 241
-128 285 -76 239 -72 521 10 755 41 116 110 248 169 319 139 170 263 272 434
356 131 65 247 97 421 118 42 5 224 -1 266 -8z"/>
</g>
</svg>
